<svg width="128" height="128" viewBox="0 0 128 128" fill="none" xmlns="http://www.w3.org/2000/svg">
  <rect width="128" height="128" rx="24" fill="#0B4F6C"/>
  <path d="M40 64C40 50.7452 50.7452 40 64 40C77.2548 40 88 50.7452 88 64C88 77.2548 77.2548 88 64 88C50.7452 88 40 77.2548 40 64Z" fill="#00E4FF"/>
  <path d="M64 28C58.4772 28 53.0907 29.0263 48.0552 30.9285C43.0197 32.8307 38.4233 35.5782 34.5007 39.5007C30.5782 43.4233 27.8307 48.0197 25.9285 53.0552C24.0263 58.0907 23 63.4772 23 69C23 74.5228 24.0263 79.9093 25.9285 84.9448C27.8307 89.9803 30.5782 94.5767 34.5007 98.4993C38.4233 102.422 43.0197 105.169 48.0552 107.071C53.0907 108.974 58.4772 110 64 110C69.5228 110 74.9093 108.974 79.9448 107.071C84.9803 105.169 89.5767 102.422 93.4993 98.4993C97.4218 94.5767 100.169 89.9803 102.071 84.9448C103.974 79.9093 105 74.5228 105 69" stroke="#00E4FF" stroke-width="4" stroke-linecap="round"/>
  <circle cx="64" cy="64" r="8" fill="#0B4F6C"/>
</svg>
